<svg width="1920" height="1080" viewBox="0 0 1920 1080" xmlns="http://www.w3.org/2000/svg"><rect width="1920" height="1080" fill="#010213"/><path d="M 0,1080 C 0,1080 0,180 0,180 C 116.23589743589744,142.76666666666665 232.47179487179488,105.53333333333333 340,121 C 447.5282051282051,136.46666666666667 546.3487179487179,204.63333333333333 643,233 C 739.6512820512821,261.3666666666667 834.1333333333334,249.93333333333334 927,218 C 1019.8666666666666,186.06666666666666 1111.1179487179488,133.63333333333333 1238,126 C 1364.8820512820512,118.36666666666669 1527.394871794872,155.53333333333336 1647,172 C 1766.605128205128,188.46666666666664 1843.302564102564,184.23333333333332 1920,180 C 1920,180 1920,1080 1920,1080 Z" fill="#3d1053" opacity="0.09999999999999999"/><path d="M 0,1080 C 0,1080 0,360 0,360 C 119.01025641025643,334.2564102564103 238.02051282051286,308.5128205128205 361,296 C 483.97948717948714,283.4871794871795 610.928205128205,284.20512820512823 696,304 C 781.071794871795,323.79487179487177 824.2666666666669,362.66666666666663 925,357 C 1025.7333333333331,351.33333333333337 1184.0051282051284,301.1282051282052 1290,298 C 1395.9948717948716,294.8717948717948 1449.7128205128206,338.8205128205128 1546,357 C 1642.2871794871794,375.1794871794872 1781.1435897435897,367.5897435897436 1920,360 C 1920,360 1920,1080 1920,1080 Z" fill="#3d1053" opacity="0.19999999999999998"/><path d="M 0,1080 C 0,1080 0,540 0,540 C 81.66923076923078,560.7538461538461 163.33846153846156,581.5076923076923 277,568 C 390.66153846153844,554.4923076923077 536.3153846153847,506.723076923077 655,511 C 773.6846153846153,515.276923076923 865.4000000000001,571.6 965,565 C 1064.6,558.4 1172.0846153846153,488.87692307692305 1290,489 C 1407.9153846153847,489.12307692307695 1536.2615384615385,558.8923076923077 1643,579 C 1749.7384615384615,599.1076923076923 1834.8692307692309,569.5538461538462 1920,540 C 1920,540 1920,1080 1920,1080 Z" fill="#3d1053" opacity="0.3"/><path d="M 0,1080 C 0,1080 0,720 0,720 C 119.1717948717949,757.8256410256411 238.3435897435898,795.651282051282 341,784 C 443.6564102564102,772.348717948718 529.7974358974358,711.2205128205128 642,706 C 754.2025641025642,700.7794871794872 892.4666666666669,751.4666666666667 1002,765 C 1111.533333333333,778.5333333333333 1192.3358974358973,754.9128205128205 1277,735 C 1361.6641025641027,715.0871794871795 1450.1897435897436,698.8820512820513 1558,697 C 1665.8102564102564,695.1179487179487 1792.9051282051282,707.5589743589744 1920,720 C 1920,720 1920,1080 1920,1080 Z" fill="#3d1053" opacity="0.39999999999999997"/><path d="M 0,1080 C 0,1080 0,900 0,900 C 84.43589743589746,868.4179487179487 168.87179487179492,836.8358974358973 281,837 C 393.1282051282051,837.1641025641027 532.9487179487179,869.0743589743591 651,883 C 769.0512820512821,896.9256410256409 865.3333333333335,892.8666666666664 963,897 C 1060.6666666666665,901.1333333333336 1159.7179487179485,913.4589743589745 1265,903 C 1370.2820512820515,892.5410256410255 1481.794871794872,859.2974358974359 1592,855 C 1702.205128205128,850.7025641025641 1811.102564102564,875.351282051282 1920,900 C 1920,900 1920,1080 1920,1080 Z" fill="#3d1053" opacity="0.49999999999999994"/></svg>